<?xml version='1.0' encoding='utf-8'?>
<svg xmlns="http://www.w3.org/2000/svg" width="920" height="210" viewBox="0 0 920 210" role="img" aria-labelledby="overview-title overview-description"><title id="overview-title">Saeed's GitHub overview</title><desc id="overview-description">Most-used programming languages on the left and GitHub contribution streak statistics on the right.</desc><rect x="0" y="0" width="920" height="210" rx="8" ry="8" fill="#273849" /><line x1="410" y1="20" x2="410" y2="190" stroke="#FFFFFF" stroke-opacity="0.22" stroke-width="1" /><svg x="10" y="8" width="390" height="194" viewBox="0 0 390 140" preserveAspectRatio="xMidYMid meet" overflow="hidden" fill="none" role="img" aria-labelledby="descId"><title id="languages-titleId" />
        <desc id="languages-descId" />
        <style>
          .header {
            font: 600 18px 'Segoe UI', Ubuntu, Sans-Serif;
            fill: #41B883;
            animation: fadeInAnimation 0.8s ease-in-out forwards;
          }
          @supports(-moz-appearance: auto) {
            /* Selector detects Firefox */
            .header { font-size: 15.5px; }
          }
          
    @keyframes slideInAnimation {
      from {
        width: 0;
      }
      to {
        width: calc(100%-100px);
      }
    }
    @keyframes growWidthAnimation {
      from {
        width: 0;
      }
      to {
        width: 100%;
      }
    }
    .stat {
      font: 600 14px 'Segoe UI', Ubuntu, "Helvetica Neue", Sans-Serif; fill: #FFFFFF;
    }
    @supports(-moz-appearance: auto) {
      /* Selector detects Firefox */
      .stat { font-size:12px; }
    }
    .bold { font-weight: 700 }
    .lang-name {
      font: 400 11px "Segoe UI", Ubuntu, Sans-Serif;
      fill: #FFFFFF;
    }
    .stagger {
      opacity: 0;
      animation: fadeInAnimation 0.3s ease-in-out forwards;
    }
    #languages-rect-mask rect{
      animation: slideInAnimation 1s ease-in-out forwards;
    }
    .lang-progress{
      animation: growWidthAnimation 0.6s ease-in-out forwards;
    }
    

          
      /* Animations */
      @keyframes scaleInAnimation {
        from {
          transform: translate(-5px, 5px) scale(0);
        }
        to {
          transform: translate(-5px, 5px) scale(1);
        }
      }
      @keyframes fadeInAnimation {
        from {
          opacity: 0;
        }
        to {
          opacity: 1;
        }
      }
    
          
        </style>

        

        <rect data-testid="card-bg" x="0.5" y="0.5" rx="4.5" height="99%" stroke="#e4e2e2" width="389" fill="#00000000" stroke-opacity="0" />

        
      <g data-testid="card-title" transform="translate(25, 35)">
        <g transform="translate(0, 0)">
      <text x="0" y="0" class="header" data-testid="header">Most Used Languages</text>
    </g>
      </g>
    

        <g data-testid="main-card-body" transform="translate(0, 55)">
          
    <svg data-testid="lang-items" x="25">
      
  
      <mask id="languages-rect-mask">
          <rect x="0" y="0" width="340" height="8" fill="white" rx="5" />
        </mask>
        
        <rect mask="url(#languages-rect-mask)" data-testid="lang-progress" x="0" y="0" width="183.16" height="8" fill="#3572A5" />
      
        <rect mask="url(#languages-rect-mask)" data-testid="lang-progress" x="183.16" y="0" width="91.29" height="8" fill="#AA6746" />
      
        <rect mask="url(#languages-rect-mask)" data-testid="lang-progress" x="274.45" y="0" width="44.02" height="8" fill="#f34b7d" />
      
        <rect mask="url(#languages-rect-mask)" data-testid="lang-progress" x="318.46999999999997" y="0" width="21.52" height="8" fill="#e16737" />
      
      
    <g transform="translate(0, 25)">
      <g transform="translate(0, 0)"><g transform="translate(0, 0)">
    <g class="stagger" style="animation-delay: 450ms">
      <circle cx="5" cy="6" r="5" fill="#3572A5" />
      <text data-testid="lang-name" x="15" y="10" class="lang-name">
        Python 53.87%
      </text>
    </g>
  </g><g transform="translate(0, 25)">
    <g class="stagger" style="animation-delay: 600ms">
      <circle cx="5" cy="6" r="5" fill="#AA6746" />
      <text data-testid="lang-name" x="15" y="10" class="lang-name">
        Solidity 26.85%
      </text>
    </g>
  </g></g><g transform="translate(150, 0)"><g transform="translate(0, 0)">
    <g class="stagger" style="animation-delay: 450ms">
      <circle cx="5" cy="6" r="5" fill="#f34b7d" />
      <text data-testid="lang-name" x="15" y="10" class="lang-name">
        C++ 12.95%
      </text>
    </g>
  </g><g transform="translate(0, 25)">
    <g class="stagger" style="animation-delay: 600ms">
      <circle cx="5" cy="6" r="5" fill="#e16737" />
      <text data-testid="lang-name" x="15" y="10" class="lang-name">
        MATLAB 6.33%
      </text>
    </g>
  </g></g>
    </g>
  
    </svg>
  
        </g>
      </svg><svg x="420" y="8" width="490" height="194" viewBox="0 0 500 190" preserveAspectRatio="xMidYMid meet" overflow="hidden" style="isolation: isolate"><style>
            a {
                fill: #ffffff;
            }
        </style>
        <defs>
            <clipPath id="streak-outer_rectangle">
                <rect width="500" height="190" rx="4.5" />
            </clipPath>
            
        </defs>
        <g clip-path="url(#streak-outer_rectangle)">
            <g style="isolation: isolate">
                <rect stroke="#000000" stroke-opacity="0" fill="#000000" fill-opacity="0" rx="4.5" x="0.5" y="0.5" width="499" height="189" />
            </g>
            <g style="isolation: isolate">
                
                <g transform="translate(250, 105.5)">
                    <text x="0" y="50" dy="0.25em" stroke-width="0" text-anchor="middle" fill="#41b883" stroke="none" font-family="&quot;Segoe UI&quot;, Ubuntu, sans-serif" font-weight="400" font-size="14px" font-style="normal">
                        Failed to retrieve contributions. This is likely a GitHub API issue.
                    </text>
                </g>

                
                <defs>
                    <mask id="streak-cut-off-area">
                        <rect x="0" y="0" width="500" height="500" fill="white" />
                        <ellipse cx="250" cy="31" rx="13" ry="18" />
                    </mask>
                </defs>
                
                <g transform="translate(250, -2.5)">
                    <path fill="#41b883" d="M0,35.8c-25.2,0-45.7,20.5-45.7,45.7s20.5,45.8,45.7,45.8s45.7-20.5,45.7-45.7S25.2,35.8,0,35.8z M0,122.3c-11.2,0-21.4-4.5-28.8-11.9c-2.9-2.9-5.4-6.3-7.4-10c-3-5.7-4.6-12.1-4.6-18.9c0-22.5,18.3-40.8,40.8-40.8 c10.7,0,20.4,4.1,27.7,10.9c3.8,3.5,6.9,7.7,9.1,12.4c2.6,5.3,4,11.3,4,17.6C40.8,104.1,22.5,122.3,0,122.3z" />
                    <path fill="#41b883" d="M4.8,93.8c5.4,1.1,10.3,4.2,13.7,8.6l3.9-3c-4.1-5.3-10-9-16.6-10.4c-10.6-2.2-21.7,1.9-28.3,10.4l3.9,3 C-13.1,95.3-3.9,91.9,4.8,93.8z" />
                    <circle fill="#41b883" cx="-15" cy="71" r="4.9" />
                    <circle fill="#41b883" cx="15" cy="71" r="4.9" />
                </g>
            </g>
        </g>
    </svg></svg>